<svg width="36" height="36" viewBox="0 0 36 36" fill="none" xmlns="http://www.w3.org/2000/svg">
<g clip-path="url(#clip0_125_684)">
<path d="M0 19.1276V16.8815C0.0269528 16.6479 0.0583715 16.4323 0.0853243 16.1897C0.489172 12.2813 2.15837 8.61162 4.83903 5.73879C7.51969 2.86596 11.0652 0.947139 14.9364 0.274089C15.5787 0.166277 16.2301 0.0943594 16.8769 0.0045166H19.123C19.2129 0.0045166 19.3027 0.0538775 19.3926 0.0628618C22.1607 0.245892 24.843 1.09838 27.2089 2.54703C29.4472 3.85915 31.3712 5.64543 32.8457 7.78032C34.3202 9.91522 35.3094 12.347 35.7439 14.9049C35.8652 15.5563 35.9282 16.2212 36.018 16.8815V19.1276C35.9686 19.5768 35.9191 19.981 35.8607 20.4123C35.3418 24.1909 33.6389 27.708 30.9966 30.4585C28.3542 33.209 24.9083 35.0515 21.1535 35.7215C20.4886 35.8428 19.8058 35.9101 19.1455 36H16.8994C16.4502 35.9461 16.001 35.9012 15.5788 35.8383C11.807 35.3133 8.29809 33.6082 5.55458 30.9671C2.81107 28.3261 0.973665 24.8846 0.30549 21.1356C0.157249 20.4707 0.0898428 19.7969 0 19.1276ZM18 29.7065C18.1347 29.5582 18.2515 29.446 18.3504 29.3202C19.698 27.703 21.0457 26.1128 22.3304 24.4552C23.7882 22.6195 25.0302 20.6224 26.0319 18.5031C26.6743 17.0971 27.1011 15.6552 26.8495 14.0829C26.288 10.588 24.4013 8.08588 21.0816 6.86402C17.7619 5.64216 14.7073 6.27559 12.0435 8.58904C9.71203 10.615 8.00052 14.577 9.96359 18.5211C10.8326 20.2573 11.8359 21.923 12.9643 23.5029C14.5215 25.6664 16.2029 27.7377 18 29.7065Z" fill="white"/>
<path d="M17.9686 29.5852C16.1704 27.6174 14.489 25.546 12.933 23.3816C11.8045 21.8016 10.8012 20.1359 9.93221 18.3997C7.95567 14.4556 9.68065 10.4936 12.0121 8.46768C14.6759 6.15423 17.7485 5.52978 21.0503 6.74266C24.352 7.95553 26.2566 10.4667 26.8181 13.9616C27.0697 15.5338 26.643 16.9802 26.0006 18.3817C24.9989 20.501 23.7569 22.4982 22.2991 24.3338C21.0188 25.9914 19.6532 27.5817 18.319 29.1989C18.2247 29.3246 18.1079 29.4415 17.9686 29.5852ZM14.8242 15.4978C14.8179 16.1663 15.0102 16.8215 15.3766 17.3807C15.743 17.9398 16.2671 18.3777 16.8825 18.6388C17.4978 18.9 18.1769 18.9727 18.8336 18.8477C19.4903 18.7228 20.0951 18.4058 20.5716 17.9369C21.048 17.468 21.3747 16.8683 21.5101 16.2137C21.6455 15.559 21.5837 14.8789 21.3324 14.2594C21.0812 13.64 20.6517 13.109 20.0985 12.7337C19.5453 12.3584 18.8932 12.1557 18.2247 12.1512C17.3306 12.1464 16.4711 12.4957 15.8339 13.1228C15.1967 13.7499 14.8336 14.6038 14.8242 15.4978Z" fill="black"/>
<path d="M14.6219 15.3183C14.6219 13.1127 16.2704 11.3382 18.2784 11.3472C20.2864 11.3562 21.9036 13.1755 21.8721 15.4171C21.8407 17.6587 20.2056 19.3837 18.1976 19.3657C16.1896 19.3477 14.6129 17.5194 14.6219 15.3183Z" fill="white"/>
</g>
<defs>
<clipPath id="clip0_125_684">
<rect width="36" height="36" fill="white"/>
</clipPath>
</defs>
</svg>
