<svg width="36" height="36" viewBox="0 0 36 36" fill="none" xmlns="http://www.w3.org/2000/svg">
<circle cx="18" cy="18" r="18" fill="white"/>
<path d="M27.625 7.5C30.0412 7.5 32 9.45876 32 11.875L32 24.125C32 26.5412 30.0412 28.5 27.625 28.5H8.375C5.95876 28.5 4 26.5412 4 24.125L4 11.875C4 9.45875 5.95875 7.5 8.375 7.5L27.625 7.5ZM8.375 9.25C6.92525 9.25 5.75 10.4253 5.75 11.875L5.75 24.125C5.75 25.5747 6.92526 26.75 8.375 26.75H27.625C29.0747 26.75 30.25 25.5747 30.25 24.125L30.25 11.875C30.25 10.4253 29.0747 9.25 27.625 9.25L8.375 9.25ZM26.876 12.8936C27.2803 12.629 27.8222 12.7422 28.0869 13.1465C28.3514 13.5508 28.2382 14.0928 27.834 14.3574L18.0059 20.792L7.9043 14.3633C7.49674 14.1038 7.37634 13.5629 7.63574 13.1553C7.89516 12.7478 8.43613 12.6276 8.84375 12.8867L17.9922 18.709L26.876 12.8936Z" fill="#0E1011"/>
</svg>
