<svg width="36" height="36" viewBox="0 0 36 36" fill="none" xmlns="http://www.w3.org/2000/svg">
<circle cx="18" cy="18" r="18" fill="white"/>
<path fill-rule="evenodd" clip-rule="evenodd" d="M15.0145 16.3803L13.6755 17.228C13.0662 16.2658 13.2594 15.0595 14.0091 14.3098L15.0336 13.2853C14.5905 11.9149 14.3125 10.1658 14.1859 8.72047C14.1817 8.67241 14.1594 8.63016 14.132 8.60362C14.1195 8.5916 14.1102 8.5869 14.107 8.58555C14.1051 8.58476 14.105 8.58474 14.1029 8.58474H9.9824C9.05127 8.58474 8.51083 9.30003 8.59468 9.9605C9.03329 13.415 10.1661 16.9802 11.7201 19.2542C13.1157 21.2964 14.8972 23.0545 16.9589 24.4231C19.1857 25.9013 22.6669 26.9805 26.0379 27.4055C26.7002 27.489 27.4152 26.9473 27.4152 26.0169L27.4152 21.8966C27.4152 21.8944 27.4152 21.8942 27.4144 21.8923C27.413 21.8891 27.4084 21.88 27.3967 21.8679C27.3709 21.8412 27.3302 21.8199 27.2841 21.816C25.9271 21.7011 24.2871 21.4575 22.9958 21.0714L21.9288 22.1384C21.1907 22.8764 20.0087 23.0768 19.0503 22.4965C16.8762 21.1803 15.0336 19.3731 13.6755 17.228L15.0145 16.3803ZM7.02251 10.1601C7.47988 13.7624 8.66775 17.5966 10.4116 20.1483C11.9224 22.3589 13.8505 24.2618 16.0824 25.7434C18.5834 27.4036 22.3272 28.5349 25.8397 28.9778C27.5765 29.1967 29 27.7674 29 26.0169L29 21.8966C29 21.0213 28.2899 20.3107 27.4177 20.2369C25.9621 20.1137 24.2573 19.8414 23.1 19.4407C22.7868 19.3323 22.4326 19.3934 22.1983 19.6278L20.8082 21.0178C20.5586 21.2673 20.1729 21.3236 19.871 21.1409C17.9069 19.9517 16.2416 18.3185 15.0145 16.3803C14.8227 16.0774 14.8762 15.6839 15.1297 15.4304L16.4859 14.0743C16.7253 13.8349 16.7834 13.4711 16.6651 13.1538C16.2085 11.9298 15.8996 10.1223 15.7647 8.58218C15.6883 7.71029 14.9781 7 14.1029 7H9.9824C8.23188 7 6.80202 8.42359 7.02251 10.1601Z" fill="#0E1011"/>
</svg>
