<svg width="20" height="20" viewBox="0 0 20 20" fill="none" xmlns="http://www.w3.org/2000/svg">
<circle cx="10" cy="10" r="10" fill="white"/>
<path d="M12.2053 3.33325H10.1226V12.0369C10.1226 13.074 9.32162 13.9259 8.3248 13.9259C7.32798 13.9259 6.52697 13.074 6.52697 12.0369C6.52697 11.0184 7.31018 10.1851 8.27141 10.1481V7.96289C6.15316 7.99991 4.44434 9.79622 4.44434 12.0369C4.44434 14.2962 6.18876 16.111 8.3426 16.111C10.4964 16.111 12.2408 14.2777 12.2408 12.0369V7.57398C13.0241 8.16659 13.9853 8.51844 14.9999 8.53697V6.35177C13.4335 6.29622 12.2053 4.96288 12.2053 3.33325Z" fill="black"/>
</svg>
