<svg width="35" height="35" viewBox="0 0 35 35" fill="none" xmlns="http://www.w3.org/2000/svg">
<mask id="mask0_121_373" style="mask-type:alpha" maskUnits="userSpaceOnUse" x="0" y="0" width="35" height="35">
<rect width="35" height="35" fill="white"/>
</mask>
<g mask="url(#mask0_121_373)">
<path d="M8.53109 24.9376C9.77067 23.9897 11.1561 23.2423 12.6873 22.6954C14.2186 22.1485 15.8228 21.8751 17.4998 21.8751C19.1769 21.8751 20.7811 22.1485 22.3123 22.6954C23.8436 23.2423 25.229 23.9897 26.4686 24.9376C27.3193 23.9411 27.9816 22.8108 28.4556 21.547C28.9295 20.2831 29.1665 18.9341 29.1665 17.5001C29.1665 14.2674 28.0302 11.5148 25.7577 9.24227C23.4851 6.9697 20.7325 5.83341 17.4998 5.83341C14.2672 5.83341 11.5146 6.9697 9.24202 9.24227C6.96946 11.5148 5.83317 14.2674 5.83317 17.5001C5.83317 18.9341 6.07015 20.2831 6.54411 21.547C7.01807 22.8108 7.68039 23.9411 8.53109 24.9376ZM17.4998 18.9584C16.0658 18.9584 14.8566 18.4662 13.8722 17.4819C12.8879 16.4975 12.3957 15.2883 12.3957 13.8542C12.3957 12.4202 12.8879 11.211 13.8722 10.2266C14.8566 9.24227 16.0658 8.75008 17.4998 8.75008C18.9339 8.75008 20.1431 9.24227 21.1274 10.2266C22.1118 11.211 22.604 12.4202 22.604 13.8542C22.604 15.2883 22.1118 16.4975 21.1274 17.4819C20.1431 18.4662 18.9339 18.9584 17.4998 18.9584ZM17.4998 32.0834C15.4825 32.0834 13.5866 31.7006 11.8123 30.935C10.038 30.1694 8.49463 29.1303 7.18213 27.8178C5.86963 26.5053 4.83057 24.9619 4.06494 23.1876C3.29932 21.4133 2.9165 19.5174 2.9165 17.5001C2.9165 15.4827 3.29932 13.5869 4.06494 11.8126C4.83057 10.0383 5.86963 8.49487 7.18213 7.18237C8.49463 5.86987 10.038 4.83081 11.8123 4.06519C13.5866 3.29956 15.4825 2.91675 17.4998 2.91675C19.5172 2.91675 21.413 3.29956 23.1873 4.06519C24.9616 4.83081 26.505 5.86987 27.8175 7.18237C29.13 8.49487 30.1691 10.0383 30.9347 11.8126C31.7004 13.5869 32.0832 15.4827 32.0832 17.5001C32.0832 19.5174 31.7004 21.4133 30.9347 23.1876C30.1691 24.9619 29.13 26.5053 27.8175 27.8178C26.505 29.1303 24.9616 30.1694 23.1873 30.935C21.413 31.7006 19.5172 32.0834 17.4998 32.0834ZM17.4998 29.1667C18.788 29.1667 20.0033 28.9784 21.1457 28.6016C22.288 28.2249 23.3332 27.6841 24.2811 26.9792C23.3332 26.2744 22.288 25.7336 21.1457 25.3569C20.0033 24.9801 18.788 24.7917 17.4998 24.7917C16.2116 24.7917 14.9964 24.9801 13.854 25.3569C12.7116 25.7336 11.6665 26.2744 10.7186 26.9792C11.6665 27.6841 12.7116 28.2249 13.854 28.6016C14.9964 28.9784 16.2116 29.1667 17.4998 29.1667ZM17.4998 16.0417C18.1318 16.0417 18.6544 15.8352 19.0675 15.422C19.4807 15.0088 19.6873 14.4862 19.6873 13.8542C19.6873 13.2223 19.4807 12.6997 19.0675 12.2865C18.6544 11.8733 18.1318 11.6667 17.4998 11.6667C16.8679 11.6667 16.3453 11.8733 15.9321 12.2865C15.5189 12.6997 15.3123 13.2223 15.3123 13.8542C15.3123 14.4862 15.5189 15.0088 15.9321 15.422C16.3453 15.8352 16.8679 16.0417 17.4998 16.0417Z" fill="white"/>
</g>
</svg>
